<svg xmlns="http://www.w3.org/2000/svg" viewBox="0 0 64 64">
  <rect width="64" height="64" rx="14" fill="#4FA8E8"/>
  <path d="M15 37h4.4a6.2 6.2 0 0 1 12.2 0h7.8a6.2 6.2 0 0 1 12.2 0H54v-8.1c0-2-1.3-3.8-3.2-4.4l-8.4-2.6-6.2-7.4A6.4 6.4 0 0 0 31.3 12H21.1c-2.2 0-4.2 1.3-5.1 3.3L12 24.2v9.1c0 2 1.3 3.7 3 3.7Z" fill="#1E1E22"/>
  <circle cx="25.5" cy="38" r="4.1" fill="#4FA8E8" stroke="#1E1E22" stroke-width="3"/>
  <circle cx="45.5" cy="38" r="4.1" fill="#4FA8E8" stroke="#1E1E22" stroke-width="3"/>
  <path d="M23 17h8.2c1.3 0 2.5.6 3.3 1.6l3.8 4.6H19.9l2.2-5c.2-.7.5-1.2.9-1.2Z" fill="#4FA8E8"/>
  <path d="M18 50h28" stroke="#1E1E22" stroke-width="4" stroke-linecap="round"/>
</svg>
